<?xml version="1.0" standalone="no"?>
<!DOCTYPE svg PUBLIC "-//W3C//DTD SVG 20010904//EN"
 "http://www.w3.org/TR/2001/REC-SVG-20010904/DTD/svg10.dtd">
<svg version="1.0" xmlns="http://www.w3.org/2000/svg"
 width="512.000000pt" height="512.000000pt" viewBox="0 0 512.000000 512.000000"
 preserveAspectRatio="xMidYMid meet">
<metadata>
Created by potrace 1.14, written by Peter Selinger 2001-2017
</metadata>
<g transform="translate(0.000000,512.000000) scale(0.100000,-0.100000)"
fill="#000000" stroke="none">
<path d="M2320 5089 c-36 -4 -84 -10 -107 -13 -23 -4 -55 -9 -70 -11 -38 -6
-83 -14 -113 -21 -14 -3 -35 -8 -47 -10 -65 -12 -273 -78 -373 -119 -742 -299
-1316 -953 -1509 -1720 -29 -116 -59 -281 -68 -372 -15 -147 -7 -560 11 -613
3 -8 7 -33 10 -55 31 -255 159 -611 312 -875 173 -298 456 -607 724 -791 36
-24 67 -46 70 -49 3 -3 43 -28 90 -57 256 -154 556 -268 840 -319 185 -33 249
-39 460 -39 237 0 348 10 540 51 367 78 721 242 1019 472 181 139 300 259 500
508 4 6 26 37 47 70 22 32 42 61 47 62 4 2 7 7 7 12 0 4 18 37 39 72 180 297
302 669 339 1038 9 97 9 403 0 500 -26 254 -87 497 -188 739 -34 82 -138 283
-179 346 -14 22 -30 48 -36 57 -17 28 -123 174 -137 189 -7 8 -38 44 -68 79
-318 377 -794 673 -1285 798 -130 34 -136 35 -252 52 -43 6 -89 14 -103 16
-42 9 -451 11 -520 3z"/>
</g>
</svg>
